<?xml version="1.0" encoding="utf-8"?>
<!-- Generator: Adobe Illustrator 27.7.0, SVG Export Plug-In . SVG Version: 6.00 Build 0)  -->
<svg version="1.1" id="Capa_1" xmlns="http://www.w3.org/2000/svg" xmlns:xlink="http://www.w3.org/1999/xlink" x="0px" y="0px"
	 viewBox="0 0 179 179" style="enable-background:new 0 0 179 179;" xml:space="preserve">
<style type="text/css">
	.st0{fill:#FF3F3F;}
	.st1{fill:#FFFFFF;}
</style>
<path class="st0" d="M177.3,89.5c0,20.8-7.2,39.9-19.4,55c-16.1,20-40.8,32.8-68.4,32.8c-24.9,0-47.4-10.4-63.4-27.1
	C11,134.5,1.7,113.1,1.7,89.5C1.7,65,11.8,42.8,28,26.9C43.8,11.3,65.5,1.7,89.5,1.7c26.5,0,50.2,11.7,66.3,30.3
	C169.2,47.4,177.3,67.5,177.3,89.5z"/>
<g>
	<path class="st1" d="M159.2,141.3c-0.4,1.1-0.8,2.1-1.3,3.2c-16.1,20-40.8,32.8-68.4,32.8c-24.9,0-47.4-10.4-63.4-27.1v-27.1
		c15.9,8.6,47.3,13.1,61.5,13.1c12.7,0,19.7-3,20.9-9.2l39.4,11.1l4.7,1.3L159.2,141.3z"/>
	<path class="st1" d="M19.7,37.7c0.4-1.1,0.8-2.1,1.3-3.2c16.1-20,40.8-32.8,68.4-32.8c24.9,0,47.4,10.4,63.4,27.1v27.1
		c-15.9-8.6-47.3-13.1-61.5-13.1c-12.7,0-19.7,3-20.9,9.2L31.1,40.9l-4.7-1.3L19.7,37.7z"/>
	<path class="st1" d="M161,122c0,1.7-0.1,3.3-0.2,4.9c-0.2,2.2-0.5,4.4-0.9,6.4l-2.5-0.7l-4.5-1.3l-57.4-16.1
		c-3.9-1.2-9-2.4-15.2-3.8c-12.3-2.5-22.7-5.4-31.2-8.6c-7.5-2.8-14.1-7.4-19.8-13.4c-0.7-0.7-1.4-1.6-2.1-2.4
		c-5.4-6.4-8.4-15-9.1-25.5C18.1,60,18,58.5,18,56.9c0-2.1,0.1-4.3,0.3-6.3c0.2-1.7,0.4-3.4,0.7-5.1l1.9,0.5l4.5,1.3l57.9,16.4
		c3.9,1.2,9,2.4,15.2,3.8c12.3,2.5,22.7,5.4,31.2,8.6c7.5,2.8,14.1,7.4,19.8,13.4c0.7,0.7,1.4,1.6,2.1,2.4
		c5.3,6.2,8.4,14.4,9.1,24.5C160.9,118.2,161,120.1,161,122z"/>
</g>
<circle class="st0" cx="-95" cy="89.5" r="83.3"/>
<g>
	<g>
		<path class="st1" d="M-32,17v40.6c-15.1-8.2-44.9-12.4-58.4-12.4c-12.1,0-18.7,2.9-19.8,8.7l-40.5-11.4l-4.4-1.2l-3.2-0.9
			c1.3-3.6,3-7,5-10.3c5.4-8.6,13.5-15.3,24.3-20.2c10.8-4.9,23.8-7.4,39.2-7.4c10.5,0,20.9,1.2,31.1,3.7C-48.7,8.6-39.8,12.2-32,17
			z"/>
		<g>
			<path class="st1" d="M-28.8,138.7c-1.3,3.6-3,7-5,10.3c-5.4,8.6-13.5,15.3-24.3,20.2c-10.8,4.9-23.8,7.4-39.2,7.4
				c-10.5,0-20.9-1.2-31.1-3.7c-10.1-2.5-19-6.2-26.8-10.9v-40.6c15.1,8.2,44.9,12.4,58.4,12.4c12.1,0,18.7-2.9,19.8-8.7l37.4,10.6
				l4.5,1.3L-28.8,138.7z"/>
		</g>
	</g>
	<path class="st1" d="M-27.1,120.4c0,1.6,0,3.1-0.2,4.7c-0.2,2.1-0.4,4.2-0.8,6.1l-2.4-0.7l-4.3-1.2L-89.3,114
		c-3.7-1.1-8.5-2.3-14.4-3.6c-11.7-2.4-21.6-5.1-29.6-8.2c-7.1-2.7-13.4-7-18.8-12.7c-0.7-0.7-1.3-1.5-2-2.3
		c-5.1-6.1-8-14.2-8.7-24.2c-0.1-1.4-0.1-2.9-0.1-4.5c0-2,0.1-4,0.3-6c0.2-1.6,0.4-3.2,0.7-4.8l1.8,0.5l4.3,1.2l55,15.6
		c3.7,1.1,8.5,2.3,14.4,3.6c11.7,2.4,21.6,5.1,29.6,8.2c7.1,2.7,13.4,7,18.8,12.7c0.7,0.7,1.3,1.5,2,2.3c5.1,5.9,7.9,13.6,8.7,23.2
		C-27.2,116.7-27.1,118.5-27.1,120.4z"/>
</g>
</svg>
